<svg xmlns="http://www.w3.org/2000/svg" viewBox="0 0 512 512" width="512" height="512">
  <defs>
    <linearGradient id="bg2" x1="0%" y1="0%" x2="100%" y2="100%">
      <stop offset="0%" style="stop-color:#006a4d"/>
      <stop offset="50%" style="stop-color:#00a36c"/>
      <stop offset="100%" style="stop-color:#004833"/>
    </linearGradient>
    <filter id="glow">
      <feGaussianBlur stdDeviation="6" result="blur"/>
      <feMerge><feMergeNode in="blur"/><feMergeNode in="SourceGraphic"/></feMerge>
    </filter>
  </defs>
  <!-- Rounded squircle background -->
  <rect x="16" y="16" width="480" height="480" rx="96" ry="96" fill="url(#bg2)"/>
  <!-- Subtle inner glow -->
  <rect x="32" y="32" width="448" height="448" rx="84" ry="84" fill="none" stroke="rgba(255,255,255,0.08)" stroke-width="2"/>
  <!-- Main large sparkle (center) — 4-point star -->
  <path d="M256 120 C256 120 280 210 290 230 C310 240 400 256 400 256 C400 256 310 272 290 282 C280 302 256 392 256 392 C256 392 232 302 222 282 C202 272 112 256 112 256 C112 256 202 240 222 230 C232 210 256 120 256 120 Z" fill="white" opacity="0.92" filter="url(#glow)"/>
  <!-- Inner detail of main sparkle -->
  <path d="M256 168 C256 168 272 222 278 236 C292 242 346 256 346 256 C346 256 292 270 278 276 C272 290 256 344 256 344 C256 344 240 290 234 276 C220 270 166 256 166 256 C166 256 220 242 234 236 C240 222 256 168 256 168 Z" fill="white" opacity="0.3"/>
  <!-- Small sparkle top-right -->
  <path d="M390 110 C390 110 398 86 398 76 C398 86 406 110 406 110 C406 110 398 134 398 144 C398 134 390 110 390 110 Z" fill="white" opacity="0.75"/>
  <!-- Tiny sparkle right -->
  <path d="M410 180 C410 180 415 168 415 162 C415 168 420 180 420 180 C420 180 415 192 415 198 C415 192 410 180 410 180 Z" fill="white" opacity="0.5"/>
  <!-- Small sparkle bottom-left -->
  <path d="M108 380 C108 380 114 362 114 354 C114 362 120 380 120 380 C120 380 114 398 114 406 C114 398 108 380 108 380 Z" fill="white" opacity="0.55"/>
</svg>
